<svg width="484" height="118" viewBox="0 0 484 118" fill="none" xmlns="http://www.w3.org/2000/svg">
<g clip-path="url(#clip0_1572_2968)">
<path d="M62.9461 95.2C60.6128 95 59.1794 93.3333 58.6461 90.2C58.1794 87.4667 57.6128 84.7333 56.9461 82C56.2794 79.2667 55.5794 76.5333 54.8461 73.8C54.5128 72.6667 54.2461 71.5667 54.0461 70.5C53.8461 69.3667 53.4794 68.2667 52.9461 67.2C48.3461 67.8667 43.6461 69.0667 38.8461 70.8C34.0461 72.4667 29.4128 73.9 24.9461 75.1C24.2794 77.0333 23.4128 79.0333 22.3461 81.1C21.2794 83.1 20.4461 85.1 19.8461 87.1C19.1794 89.2333 18.4461 90.6333 17.6461 91.3C16.8461 91.9667 15.5794 92.1667 13.8461 91.9C12.8461 91.7 12.1128 91.5 11.6461 91.3C11.1794 91.0333 10.5461 90.6333 9.74609 90.1L12.8461 83.9C14.3794 80.2333 15.8794 76.7333 17.3461 73.4C18.8128 70.0667 20.1794 66.7333 21.4461 63.4C23.1794 58.8667 24.8461 54.2667 26.4461 49.6C28.0461 44.9333 29.6794 40.2667 31.3461 35.6C31.6794 34.8 31.9794 33.9667 32.2461 33.1C32.5794 32.2333 32.9461 31.4 33.3461 30.6C34.2794 28.6667 35.3128 27.5667 36.4461 27.3C37.6461 27.0333 39.0128 27.6667 40.5461 29.2C42.4128 31.0667 44.0461 33.3333 45.4461 36C46.9128 38.7333 48.3128 41.5 49.6461 44.3C50.9794 47.1 52.3794 49.9 53.8461 52.7C54.3794 53.7667 54.9461 54.7667 55.5461 55.7C56.1461 56.6333 57.1794 57.2667 58.6461 57.6C60.0461 57.9333 60.9461 58.6333 61.3461 59.7C61.8128 60.7 61.6461 61.8667 60.8461 63.2C60.1128 64.2667 59.7794 65.3333 59.8461 66.4C59.9794 67.4 60.1461 68.4 60.3461 69.4C61.0128 72 61.6794 74.5667 62.3461 77.1C63.0794 79.5667 63.7128 82.0667 64.2461 84.6C64.7128 86.3333 64.9794 88.1 65.0461 89.9C65.1794 91.7 64.4794 93.4667 62.9461 95.2ZM27.2461 68.2C29.2461 67.4667 31.6128 66.6 34.3461 65.6C37.0794 64.5333 39.8128 63.5 42.5461 62.5C45.3461 61.4333 47.7461 60.5333 49.7461 59.8C48.4794 56.1333 46.9461 52.4667 45.1461 48.8C43.4128 45.0667 41.2794 41.6667 38.7461 38.6C37.6794 40.5333 36.4794 42.8667 35.1461 45.6C33.8128 48.3333 32.5461 51.1667 31.3461 54.1C30.1461 57.0333 29.1461 59.7667 28.3461 62.3C27.6128 64.7667 27.2461 66.7333 27.2461 68.2ZM81.5758 92.4C80.0424 92.2 78.8758 91.6 78.0758 90.6C77.2758 89.5333 77.0091 88.0667 77.2758 86.2C78.2091 79.2 79.0758 72.2 79.8758 65.2C80.7424 58.1333 81.7091 51.1 82.7758 44.1C82.9091 43.1 83.2091 42.0333 83.6758 40.9C84.1424 39.7667 84.7091 38.7667 85.3758 37.9C86.0424 36.9667 86.7091 36.4333 87.3758 36.3C88.6424 35.9667 90.1758 36.2333 91.9758 37.1C93.7758 37.9667 95.1091 38.9667 95.9758 40.1C100.042 45.1667 103.976 50.3333 107.776 55.6C111.576 60.8 115.409 66 119.276 71.2C120.076 72.2667 121.009 73.6 122.076 75.2C123.209 76.7333 124.109 78.0333 124.776 79.1L125.476 77.4C125.476 74.9333 125.476 72.5 125.476 70.1C125.542 67.6333 125.509 65.2 125.376 62.8C125.309 57.9333 125.176 53.1 124.976 48.3C124.776 43.4333 124.642 38.6 124.576 33.8C124.576 32.8667 124.809 31.9667 125.276 31.1C125.809 30.2333 126.242 29.3667 126.576 28.5C127.442 28.5 128.342 29.0667 129.276 30.2C130.276 31.3333 131.009 32.4 131.476 33.4C131.942 34.6 132.176 35.9 132.176 37.3C132.242 38.7 132.276 40.0667 132.276 41.4C132.276 49 132.242 56.6 132.176 64.2C132.176 71.8 132.109 79.4 131.976 87C131.976 87.8667 131.609 88.8667 130.876 90C130.142 91.0667 129.476 91.6 128.876 91.6C128.009 91.6667 126.976 91.4333 125.776 90.9C124.642 90.3 123.809 89.6333 123.276 88.9C118.809 82.4333 114.542 76.1667 110.476 70.1C106.476 64.0333 101.909 58.0667 96.7758 52.2C95.6424 50.8667 94.4424 49.7667 93.1758 48.9C91.9091 47.9667 90.8424 47.0667 89.9758 46.2C89.7091 48.8667 89.4424 50.8667 89.1758 52.2C88.9758 53.4667 88.8091 54.5 88.6758 55.3C88.5424 56.1 88.3758 57.0333 88.1758 58.1C88.0424 59.1 87.8758 60.6667 87.6758 62.8C87.2758 66.8 86.9424 70.8333 86.6758 74.9C86.4758 78.9 86.2091 82.9 85.8758 86.9C85.8091 88.3 85.5424 89.6333 85.0758 90.9C84.6091 92.1 83.4424 92.6 81.5758 92.4ZM151.777 93.1C151.777 87.7 151.777 82.2333 151.777 76.7C151.844 71.1667 151.811 65.6333 151.677 60.1C151.611 55.3667 150.911 50.8333 149.577 46.5C148.244 42.1 147.011 37.6333 145.877 33.1C145.611 31.9 145.211 30.8333 144.677 29.9C144.211 28.9667 143.911 28.1 143.777 27.3C143.644 26.5 143.977 25.7 144.777 24.9C145.977 23.7 147.177 23.4333 148.377 24.1C149.577 24.7 150.811 25.5667 152.077 26.7C152.211 26.8333 152.411 26.9333 152.677 27C153.011 27.0667 153.411 27.1667 153.877 27.3C157.144 25.1 160.444 23.8 163.777 23.4C167.111 23 170.444 23.2667 173.777 24.2C177.111 25.0667 180.444 26.3 183.777 27.9C187.244 29.5 190.011 31.7 192.077 34.5C194.211 37.2333 195.611 40.2 196.277 43.4C197.011 46.6 197.011 49.7333 196.277 52.8C194.811 59.0667 192.277 64.6 188.677 69.4C185.077 74.1333 180.944 78.5333 176.277 82.6C174.611 84.0667 172.944 85.3333 171.277 86.4C169.677 87.4667 167.911 88.6 165.977 89.8C165.177 90.3333 164.211 90.9667 163.077 91.7C161.944 92.4333 160.944 92.9333 160.077 93.2C158.811 93.6 157.611 93.8 156.477 93.8C155.411 93.8 153.844 93.5667 151.777 93.1ZM159.777 84.8C161.911 84.6667 164.177 83.8 166.577 82.2C168.977 80.6 171.344 78.5333 173.677 76C176.077 73.4 178.311 70.5667 180.377 67.5C182.511 64.4333 184.311 61.3667 185.777 58.3C187.311 55.1667 188.411 52.2667 189.077 49.6C189.611 47.4667 189.311 45.3 188.177 43.1C187.111 40.9 185.711 39.0667 183.977 37.6C181.311 35.2667 178.344 33.5333 175.077 32.4C171.877 31.2667 168.411 31.1 164.677 31.9C161.277 32.6333 158.911 33.8333 157.577 35.5C156.244 37.1 155.777 39.6 156.177 43C156.777 48.1333 157.311 53.3 157.777 58.5C158.311 63.7 158.744 68.9 159.077 74.1L159.777 84.8ZM247.789 98.3C247.322 99.1667 246.789 99.8 246.189 100.2C245.656 100.667 245.122 100.667 244.589 100.2L241.989 98.1C241.589 94.3667 241.289 91.3 241.089 88.9C240.889 86.5 240.756 84.3333 240.689 82.4C240.622 80.4667 240.556 78.3333 240.489 76C240.422 73.6667 240.322 70.6667 240.189 67C240.189 66.0667 239.889 65.4333 239.289 65.1C238.689 64.7667 237.622 64.7 236.089 64.9C234.622 65.1 233.222 65.2667 231.889 65.4C230.556 65.5333 229.189 65.7667 227.789 66.1C226.389 66.3667 225.022 66.6333 223.689 66.9C222.356 67.1 221.189 67.3 220.189 67.5C218.922 68.3 217.989 69.2667 217.389 70.4C216.789 71.5333 216.322 72.7333 215.989 74C215.722 75.2667 215.389 76.5 214.989 77.7C214.589 78.9 213.956 79.9667 213.089 80.9C211.556 82.4333 210.256 83.2333 209.189 83.3C208.122 83.3 207.289 82.8667 206.689 82C206.089 81.0667 205.789 79.9333 205.789 78.6C205.789 77.2667 206.122 76.0333 206.789 74.9C209.322 69.5667 211.822 64.2667 214.289 59C216.822 53.6667 218.989 48.1667 220.789 42.5C221.522 40.2333 222.322 38.0333 223.189 35.9C224.056 33.7 224.922 31.5333 225.789 29.4C226.389 27.8667 227.122 26.4333 227.989 25.1C228.922 23.7667 230.056 22.6 231.389 21.6C231.922 21.2 232.489 20.8667 233.089 20.6C233.689 20.3333 234.189 20.1 234.589 19.9C236.322 19.9667 237.656 20.4 238.589 21.2C239.589 22 240.322 23.0333 240.789 24.3C241.122 25.1667 241.389 26.0333 241.589 26.9C241.789 27.7 241.956 28.5667 242.089 29.5L244.489 48.7C244.622 49.5667 244.722 50.4667 244.789 51.4C244.922 52.2667 245.356 53.1667 246.089 54.1C246.422 54.2333 246.822 54.4333 247.289 54.7C247.756 54.9 248.222 55.0333 248.689 55.1C249.889 55.1667 251.056 55.2333 252.189 55.3C253.389 55.3 254.389 55.3333 255.189 55.4C256.389 55.8 257.256 56.2667 257.789 56.8C258.322 57.2667 258.722 57.8667 258.989 58.6L258.189 60.4C257.389 61 256.489 61.3 255.489 61.3C254.556 61.3 253.556 61.2667 252.489 61.2C251.489 61.0667 250.489 61.1333 249.489 61.4C248.556 61.6667 247.656 62.3667 246.789 63.5C246.589 65.1 246.422 66.2333 246.289 66.9C246.222 67.5667 246.156 68.0667 246.089 68.4C246.022 68.6667 245.989 68.9667 245.989 69.3C245.989 69.5667 245.956 70.0667 245.889 70.8C245.889 71.5333 245.856 72.7667 245.789 74.5C245.722 77.2333 245.889 79.9667 246.289 82.7C246.689 85.3667 247.056 88 247.389 90.6C247.789 93.2 247.922 95.7667 247.789 98.3ZM224.189 59.9C226.189 59.7 227.789 59.5333 228.989 59.4C230.189 59.2667 231.189 59.1 231.989 58.9C232.789 58.7 233.622 58.4 234.489 58C235.356 57.6 236.489 57.0667 237.889 56.4C238.622 52 238.589 47.6333 237.789 43.3C237.056 38.9 236.256 34.5333 235.389 30.2H232.589C230.122 34.5333 227.822 39.2667 225.689 44.4C223.622 49.5333 221.989 54.2667 220.789 58.6C220.656 59.0667 220.789 59.3333 221.189 59.4C221.589 59.4667 222.056 59.5 222.589 59.5C223.189 59.4333 223.722 59.5667 224.189 59.9ZM334.773 95.3C334.239 94.5667 333.639 93.8333 332.973 93.1C332.373 92.4333 331.939 91.7 331.673 90.9C330.673 87.4333 329.739 83.9667 328.873 80.5C328.006 76.9667 327.073 73.4667 326.073 70C324.806 65.4 323.473 60.8333 322.073 56.3C320.739 51.7 319.406 47.1 318.073 42.5C317.539 40.6333 316.939 39.5333 316.273 39.2C315.673 38.8 315.373 38.5333 315.373 38.4C314.706 41.4 313.873 44.5333 312.873 47.8C311.939 51 311.073 54.0667 310.273 57C309.806 58.8667 309.339 60.7667 308.873 62.7C308.473 64.5667 307.873 66.3667 307.073 68.1C306.006 70.5 304.573 71.8667 302.773 72.2C301.039 72.4667 299.306 71.5667 297.573 69.5C294.973 66.4333 292.506 63.2667 290.173 60C287.839 56.7333 285.473 53.5333 283.073 50.4C282.206 49.2667 281.239 48.2 280.173 47.2C279.106 46.1333 277.806 45.1667 276.273 44.3C276.406 46.9667 276.606 49.6333 276.873 52.3C277.139 54.9667 277.206 57.6333 277.073 60.3C276.939 64.3667 276.673 68.4333 276.273 72.5C275.939 76.5667 275.506 80.6667 274.973 84.8C274.906 85.4667 274.439 86.2667 273.573 87.2C272.706 88.0667 271.939 88.5 271.273 88.5C269.939 88.4333 269.206 87.9333 269.073 87C269.006 86 269.039 84.9333 269.173 83.8C270.173 76.3333 270.639 68.9 270.573 61.5C270.506 54.1 270.006 46.7 269.073 39.3C268.939 37.7667 268.973 36.2333 269.173 34.7C269.373 33.1667 269.606 31.6667 269.873 30.2C269.939 29.7333 270.273 29.2667 270.873 28.8C271.473 28.3333 272.006 28.0667 272.473 28C273.006 27.9333 273.606 28.0333 274.273 28.3C275.006 28.5667 275.506 28.9333 275.773 29.4C277.373 31.6667 278.906 33.9667 280.373 36.3C281.839 38.5667 283.373 40.8667 284.973 43.2C287.039 46.1333 289.106 49.0667 291.173 52C293.306 54.8667 295.439 57.7667 297.573 60.7C298.106 61.3667 298.673 62.0333 299.273 62.7C299.939 63.3667 300.773 64.2667 301.773 65.4L304.473 53.4C305.073 50.8667 305.606 48.3667 306.073 45.9C306.606 43.3667 307.339 40.9333 308.273 38.6C309.273 36.2 310.673 34 312.473 32C314.006 30.3333 315.406 29.5 316.673 29.5C318.006 29.5 319.139 30.4667 320.073 32.4C322.006 36.4667 323.873 40.5667 325.673 44.7C327.473 48.8333 329.073 53.0333 330.473 57.3C332.073 62.1667 333.473 67.1 334.673 72.1C335.873 77.1 337.106 82.1 338.373 87.1C338.506 87.7 338.573 88.3667 338.573 89.1C338.639 89.7667 338.539 90.3667 338.273 90.9C337.873 91.7 337.339 92.4333 336.673 93.1C336.006 93.8333 335.373 94.5667 334.773 95.3ZM351.713 103.3C350.447 103.3 349.58 102.667 349.113 101.4C348.713 100.133 348.547 98.8667 348.613 97.6C349.147 92.6667 349.78 87.7667 350.513 82.9C351.313 77.9667 352.48 73.1333 354.013 68.4C355.747 63.2 357.447 58 359.113 52.8C360.78 47.6 362.747 42.5 365.013 37.5C366.88 33.1667 368.847 28.8333 370.913 24.5L371.313 19.4C371.98 18.2667 372.947 17.7 374.213 17.7C374.68 17.7 375.213 17.8 375.813 18C376.547 18.2667 377.28 18.6333 378.013 19.1C378.747 19.5667 379.48 20 380.213 20.4C380.547 24.3333 381.347 28.0667 382.613 31.6C383.88 35.0667 385.313 38.4667 386.913 41.8C388.513 45.1333 389.947 48.5333 391.213 52L401.513 52.6C402.447 53 403.013 53.4333 403.213 53.9C403.413 54.3667 403.547 54.9 403.613 55.5C403.013 56.7667 402.18 57.5667 401.113 57.9C400.047 58.1667 398.947 58.3667 397.813 58.5C396.68 58.5667 395.68 58.9667 394.813 59.7C394.147 60.3 393.813 61.0333 393.813 61.9C393.813 62.1667 393.813 62.4333 393.813 62.7C393.88 62.9667 393.947 63.2333 394.013 63.5C394.547 66.1667 395.08 68.8333 395.613 71.5C396.213 74.1667 396.713 76.8667 397.113 79.6C397.313 81.4 397.413 83.2667 397.413 85.2C397.48 87.0667 397.547 88.9667 397.613 90.9C397.613 92.0333 397.38 92.9667 396.913 93.7C396.447 94.5 395.88 94.9 395.213 94.9C394.413 94.9 393.747 94.3 393.213 93.1C392.947 92.5667 392.647 92 392.313 91.4C392.047 90.7333 391.847 90.0667 391.713 89.4C391.38 87.2667 391.047 85.1 390.713 82.9C390.447 80.7 390.08 78.5 389.613 76.3C389.28 74.1667 388.847 72 388.313 69.8C387.78 67.6 387.247 65.4333 386.713 63.3C386.513 62.5 386.147 61.7667 385.613 61.1C385.08 60.3667 384.247 59.8667 383.113 59.6C379.847 59.8667 376.613 60.4333 373.413 61.3C370.213 62.1667 367.013 63.1333 363.813 64.2C361.547 68.2667 359.58 73.5333 357.913 80C356.313 86.4667 354.847 94.0667 353.513 102.8C352.713 103.133 352.113 103.3 351.713 103.3ZM368.813 54.4C371.08 53.9333 373.313 53.6333 375.513 53.5C377.78 53.3 379.947 52.7667 382.013 51.9C382.08 49.7 381.68 47.5 380.813 45.3C380.013 43.0333 379.08 40.8667 378.013 38.8C376.947 36.6667 375.98 34.7667 375.113 33.1L373.813 35.7C372.747 38.4333 371.547 41.2 370.213 44C368.947 46.8 368.08 49.9 367.613 53.3L368.813 54.4ZM420.052 92.4C418.519 92.2 417.352 91.6 416.552 90.6C415.752 89.5333 415.486 88.0667 415.752 86.2C416.686 79.2 417.552 72.2 418.352 65.2C419.219 58.1333 420.186 51.1 421.252 44.1C421.386 43.1 421.686 42.0333 422.152 40.9C422.619 39.7667 423.186 38.7667 423.852 37.9C424.519 36.9667 425.186 36.4333 425.852 36.3C427.119 35.9667 428.652 36.2333 430.452 37.1C432.252 37.9667 433.586 38.9667 434.452 40.1C438.519 45.1667 442.452 50.3333 446.252 55.6C450.052 60.8 453.886 66 457.752 71.2C458.552 72.2667 459.486 73.6 460.552 75.2C461.686 76.7333 462.586 78.0333 463.252 79.1L463.952 77.4C463.952 74.9333 463.952 72.5 463.952 70.1C464.019 67.6333 463.986 65.2 463.852 62.8C463.786 57.9333 463.652 53.1 463.452 48.3C463.252 43.4333 463.119 38.6 463.052 33.8C463.052 32.8667 463.286 31.9667 463.752 31.1C464.286 30.2333 464.719 29.3667 465.052 28.5C465.919 28.5 466.819 29.0667 467.752 30.2C468.752 31.3333 469.486 32.4 469.952 33.4C470.419 34.6 470.652 35.9 470.652 37.3C470.719 38.7 470.752 40.0667 470.752 41.4C470.752 49 470.719 56.6 470.652 64.2C470.652 71.8 470.586 79.4 470.452 87C470.452 87.8667 470.086 88.8667 469.352 90C468.619 91.0667 467.952 91.6 467.352 91.6C466.486 91.6667 465.452 91.4333 464.252 90.9C463.119 90.3 462.286 89.6333 461.752 88.9C457.286 82.4333 453.019 76.1667 448.952 70.1C444.952 64.0333 440.386 58.0667 435.252 52.2C434.119 50.8667 432.919 49.7667 431.652 48.9C430.386 47.9667 429.319 47.0667 428.452 46.2C428.186 48.8667 427.919 50.8667 427.652 52.2C427.452 53.4667 427.286 54.5 427.152 55.3C427.019 56.1 426.852 57.0333 426.652 58.1C426.519 59.1 426.352 60.6667 426.152 62.8C425.752 66.8 425.419 70.8333 425.152 74.9C424.952 78.9 424.686 82.9 424.352 86.9C424.286 88.3 424.019 89.6333 423.552 90.9C423.086 92.1 421.919 92.6 420.052 92.4Z" fill="black"/>
</g>
<defs>
<clipPath id="clip0_1572_2968">
<rect width="484" height="118" fill="white"/>
</clipPath>
</defs>
</svg>
